# xmcd
#
# Track frame offsets:
#	150
#	17540
#	34035
#	51407
#	67087
#	84377
#	106515
#	122552
#	137397
#	154780
#	171325
#	188725
#	204400
#	221809
#	243912
#	259947
#
# Disc length: 3664 seconds
#
# Revision: 2
# Processed by: cddbd v1.5.2PL0 Copyright (c) Steve Scherf et al.
# Submitted via: audiograbber 1.83.01
#
DISCID=d70e4e10
DTITLE=Garth Brooks - SC2015
DYEAR=1900
DGENRE=Country
TTITLE0=If Tomorrow Never Comes
TTITLE1=Unanswered Prayers
TTITLE2=The Thunder Rolls
TTITLE3=The Dance
TTITLE4=The River
TTITLE5=That Summer
TTITLE6=What She's Doing Now
TTITLE7=Somewhere Other Than The Night
TTITLE8=If Tomorrow Never Comes
TTITLE9=Unanswered Prayers
TTITLE10=The Thunder Rolls
TTITLE11=The Dance
TTITLE12=The River
TTITLE13=That Summer
TTITLE14=What She's Doing Now
TTITLE15=Somewhere Other Than The Night
EXTD=SOUND CHOICE\nSTARSERIES COUNTRY
EXTT0=
EXTT1=
EXTT2=
EXTT3=
EXTT4=
EXTT5=
EXTT6=
EXTT7=
EXTT8=
EXTT9=
EXTT10=
EXTT11=
EXTT12=
EXTT13=
EXTT14=
EXTT15=
PLAYORDER=
